<svg xmlns="http://www.w3.org/2000/svg" viewBox="0 0 24 24" id="disconnect">
  <path d="M10.4599609 16.7900391c.8261719-.8251953 2.2539062-.8251953 3.0800781 0 .1953125.1953125.4511719.2929688.7070312.2929688s.5117188-.0976562.7070312-.2929688c.390625-.390625.390625-1.0234375 0-1.4140625-.7900391-.7905273-1.8388672-1.2255859-2.9541016-1.2255859s-2.1640625.4350586-2.9541016 1.2255859c-.390625.390625-.390625 1.0234375 0 1.4140625s1.0234375.390625 1.4140625 0zM20.7070312 5.2929688c-.390625-.390625-1.0234375-.390625-1.4140625 0l-1.2929688 1.2929688-1.2929688-1.2929688c-.390625-.390625-1.0234375-.390625-1.4140625 0s-.390625 1.0234375 0 1.4140625l1.2929688 1.2929688-1.2929688 1.2929688c-.390625.390625-.390625 1.0234375 0 1.4140625.1953125.1953125.4511719.2929688.7070312.2929688s.5117188-.0976562.7070312-.2929688l1.2929688-1.2929688 1.2929688 1.2929688c.1953125.1953125.4511719.2929688.7070312.2929688s.5117188-.0976562.7070312-.2929688c.390625-.390625.390625-1.0234375 0-1.4140625l-1.2929688-1.2929688 1.2929688-1.2929688c.390625-.390625.390625-1.0234375 0-1.4140625zM7.5097656 14.8398438c.2587891 0 .5175781-.0996094.7128906-.2988281.9960938-1.0126953 2.3378906-1.5708008 3.7773438-1.5708008.1582031 0 .3085938.0087891.5302734.0200195h.0097656c.5410156 0 .9765625-.4306641.9912109-.9716797.015625-.5410156-.4101562-.996582-.9501953-1.0268555-2.1855469-.1196289-4.2714844.609375-5.7841797 2.1469727-.3876953.3935547-.3818359 1.0268555.0117188 1.4140625.1943359.1914062.4482422.2871094.7011719.2871094zM12.1904297 9.7900391c.5527344 0 1-.4477539 1-1s-.4472656-1-1-1h-.1904297c-2.8183594 0-5.4648438 1.0991211-7.4492188 3.0947266-.3896484.3916016-.3876953 1.0244141.0039062 1.4140625.1953125.1943359.4501953.2910156.7050781.2910156.2568359 0 .5136719-.0981445.7089844-.2949219 1.6064453-1.6152344 3.7490234-2.5048828 6.03125-2.5048828h.1904297z" fill="#c30202" class="color000000 svgShape"></path>
  <path d="M3,10.3300781c.2558594,0,.5117188-.0976562,.7070312-.2929688,2.2099609-2.2099609,5.1552734-3.4272461,8.3125-3.4272461,.5527344,0,.9902344-.4477539,.9902344-1s-.4570312-1-1.0097656-1c-3.6728516,0-7.1201172,1.425293-9.7070312,4.0131836-.390625,.390625-.390625,1.0239258,0,1.4140625,.1953125,.1953125,.4511719,.2929688,.7070312,.2929688Z" fill="#c30202" class="color000000 svgShape"></path>
  <circle cx="12" cy="18.33" r="1.06" fill="#c30202" class="color000000 svgShape"></circle>
</svg>
